# Blender v2.79 (sub 0) OBJ File: 'GlassPaneTest.blend'
# www.blender.org
mtllib GlassPaneTest.mtl
o Cube
v 0.126014 0.332608 1.146029
v 0.272639 2.379233 -0.900595
v 0.272639 0.332608 -0.900595
v 0.272639 2.379233 1.146029
v 0.272639 0.332608 1.146029
v 0.126014 2.379233 -0.900595
v 0.126014 0.332608 -0.900595
v 0.126014 2.379233 1.146029
vt 0.669228 0.000213
vt 0.669228 0.249787
vt 0.000213 0.249787
vt 0.000213 0.000213
vt 0.669655 0.249787
vt 0.669655 0.000213
vt 0.919228 0.000213
vt 0.919228 0.249787
vt 0.000213 0.750213
vt 0.669228 0.750213
vt 0.669228 0.999787
vt 0.000213 0.999787
vt 0.919228 0.250213
vt 0.919228 0.499787
vt 0.669655 0.499787
vt 0.669655 0.250213
vt 0.000213 0.749787
vt 0.000213 0.500213
vt 0.669228 0.500213
vt 0.669228 0.749787
vt 0.669228 0.499787
vt 0.000213 0.499787
vt 0.000213 0.250213
vt 0.669228 0.250213
vn 0.0000 0.0000 1.0000
vn -1.0000 0.0000 0.0000
vn 0.0000 -1.0000 0.0000
vn 1.0000 0.0000 0.0000
vn 0.0000 0.0000 -1.0000
vn 0.0000 1.0000 0.0000
usemtl Material
s off
f 5/1/1 4/2/1 8/3/1 1/4/1
f 1/5/2 8/6/2 6/7/2 7/8/2
f 7/9/3 3/10/3 5/11/3 1/12/3
f 3/13/4 2/14/4 4/15/4 5/16/4
f 7/17/5 6/18/5 2/19/5 3/20/5
f 2/21/6 6/22/6 8/23/6 4/24/6
